<svg width="150" height="149" viewBox="0 0 150 149" fill="none" xmlns="http://www.w3.org/2000/svg">
<g clip-path="url(#clip0_407_5578)">
<path d="M144.192 59.655C139.373 48.0695 131.29 38.1351 120.926 31.0613C110.563 23.9875 98.3661 20.0796 85.8213 19.8135C91.0817 27.1704 94.1164 35.8844 94.564 44.9174C96.4567 45.3912 98.3115 46.0055 100.113 46.7551C106.529 49.4076 112.16 53.6562 116.471 59.0974C120.783 64.5386 123.632 70.9916 124.748 77.8437C125.864 84.6958 125.21 91.7195 122.847 98.2476C120.485 104.776 116.493 110.592 111.251 115.143C106.008 119.694 99.6895 122.829 92.8943 124.251C86.0991 125.673 79.0532 125.335 72.4257 123.267C65.7983 121.2 59.8094 117.473 55.0278 112.439C50.2462 107.406 46.8306 101.234 45.1055 94.5096C36.0666 94.0953 27.3372 91.0915 19.957 85.8562C20.2537 98.4932 24.2519 110.766 31.4563 121.152C38.6607 131.539 48.7544 139.583 60.4867 144.288C72.2189 148.993 85.0739 150.152 97.4586 147.621C109.843 145.091 121.213 138.982 130.159 130.051C139.18 121.009 145.325 109.501 147.822 96.9753C150.319 84.4495 149.056 71.4649 144.192 59.655ZM44.4811 76.953C45.9741 68.8776 49.8758 61.443 55.6732 55.6265C61.4706 49.81 68.8923 45.8839 76.9627 44.3643C76.3048 37.4969 73.2731 31.0738 68.3895 26.201C67.1929 25.0031 65.8978 23.9079 64.5178 22.9269C54.8072 26.1054 45.9845 31.5323 38.7681 38.7657C31.5518 45.9991 26.1457 54.8346 22.9902 64.5527C23.9626 65.9071 25.0426 67.181 26.2196 68.362C31.1178 73.2689 37.5779 76.308 44.4811 76.953Z" fill="#D6E0FF"/>
<path d="M94.5636 44.9174C91.2693 44.0997 87.886 43.6951 84.4917 43.713C81.966 43.7144 79.4456 43.9473 76.9624 44.4089C77.3907 48.7834 76.8453 53.1985 75.3653 57.3373C73.8853 61.4761 71.5074 65.2359 68.4024 68.347C65.2973 71.458 61.542 73.8431 57.4061 75.331C53.2701 76.819 48.8561 77.3729 44.4807 76.953C43.4074 82.7791 43.6083 88.7685 45.0695 94.5096C45.81 94.5096 46.5593 94.5632 47.2998 94.5632C59.8397 94.5632 71.866 89.5817 80.733 80.7147C89.6 71.8476 94.5815 59.8213 94.5815 47.2815C94.5636 46.4875 94.5636 45.7024 94.5636 44.9174ZM47.2819 17.4761C51.1351 17.4629 54.9547 18.1929 58.5314 19.6261C60.6457 20.4806 62.6544 21.5762 64.5175 22.8912C70.9705 20.808 77.7108 19.7513 84.4917 19.7599H85.821C81.8288 14.1637 76.6643 9.50537 70.6875 6.10941C64.7107 2.71346 58.0652 0.661613 51.2142 0.0968538C44.3632 -0.467905 37.4715 0.468008 31.0192 2.83938C24.567 5.21074 18.7094 8.96053 13.8547 13.8274C9.45792 18.2187 5.96991 23.4336 3.5901 29.1739C1.21028 34.9143 -0.0146484 41.0674 -0.0146484 47.2815C-0.0146484 53.4955 1.21028 59.6487 3.5901 65.389C5.96991 71.1293 9.45792 76.3442 13.8547 80.7355C15.7277 82.6143 17.7571 84.3304 19.921 85.8651C19.921 85.3745 19.921 84.8838 19.921 84.3931C19.912 77.6623 20.9534 70.9713 23.0077 64.5616C19.8392 60.1032 17.9582 54.8592 17.5706 49.4034C17.1829 43.9476 18.3036 38.4902 20.8099 33.6287C23.3162 28.7671 27.1116 24.6887 31.7806 21.8398C36.4496 18.9909 41.8124 17.4813 47.2819 17.4761Z" fill="#D6E0FF"/>
</g>
<defs>
<clipPath id="clip0_407_5578">
<rect width="149.071" height="148.964" fill="white"/>
</clipPath>
</defs>
</svg>
