<svg width="54" height="46" viewBox="0 0 54 46" fill="none" xmlns="http://www.w3.org/2000/svg">
<path fill-rule="evenodd" clip-rule="evenodd" d="M45.2669 21.6199C43.7787 21.6199 42.5611 22.8375 42.5611 24.3258C42.5611 33.2822 35.2822 40.5611 26.3258 40.5611C21.5364 40.5611 17.234 38.4505 14.2575 35.1493H18.2081C19.6964 35.1493 20.914 33.9317 20.914 32.4434C20.914 30.9552 19.6964 29.7375 18.2081 29.7375H7.38459C5.89636 29.7375 4.67871 30.9552 4.67871 32.4434V43.2669C4.67871 44.7552 5.89636 45.9728 7.38459 45.9728C8.87283 45.9728 10.0905 44.7552 10.0905 43.2669V38.5587C14.0411 43.0775 19.8317 45.9728 26.3258 45.9728C38.2858 45.9728 47.9728 36.2858 47.9728 24.3258C47.9728 22.8375 46.7552 21.6199 45.2669 21.6199ZM45.2669 2.67871C43.7787 2.67871 42.5611 3.89636 42.5611 5.38459V10.0928C38.6105 5.57401 32.8199 2.67871 26.3258 2.67871C14.3658 2.67871 4.67871 12.3658 4.67871 24.3258C4.67871 25.814 5.89636 27.0317 7.38459 27.0317C8.87283 27.0317 10.0905 25.814 10.0905 24.3258C10.0905 15.3693 17.3693 8.09048 26.3258 8.09048C31.1152 8.09048 35.4175 10.2011 38.394 13.5022H34.4434C32.9552 13.5022 31.7375 14.7199 31.7375 16.2081C31.7375 17.6964 32.9552 18.914 34.4434 18.914H45.2669C46.7552 18.914 47.9728 17.6964 47.9728 16.2081V5.38459C47.9728 3.89636 46.7552 2.67871 45.2669 2.67871Z" fill="#8F95B2"/>
<circle cx="9" cy="20" r="9" fill="white"/>
<circle cx="45" cy="30" r="9" fill="white"/>
<path fill-rule="evenodd" clip-rule="evenodd" d="M3.625 21.625V22.4375C3.625 22.4375 3.625 22.7869 3.625 23.25V24.0544C3.625 24.8669 3.625 25.6875 3.625 25.6875C3.625 26.1344 3.99063 26.5 4.4375 26.5H6.875V22.4375H10.125V26.5H12.5625C13.0094 26.5 13.375 26.1344 13.375 25.6875V21.625L8.5 16.75L3.625 21.625ZM14.7644 19.4231L13.375 18.0419V15.125C13.375 14.6781 13.0094 14.3125 12.5625 14.3125C12.1156 14.3125 11.75 14.6781 11.75 15.125V16.4169L9.07688 13.7356C8.93062 13.5894 8.7275 13.5 8.5 13.5C8.2725 13.5 8.06938 13.5894 7.92312 13.7356L2.23562 19.4231C2.08937 19.5694 2 19.7725 2 20C2 20.4469 2.36562 20.8125 2.8125 20.8125C3.04 20.8125 3.24313 20.7231 3.38937 20.5769L8.5 15.4581L13.6106 20.5687C13.7569 20.7231 13.96 20.8125 14.1875 20.8125C14.6344 20.8125 15 20.4469 15 20C15 19.7725 14.9106 19.5694 14.7644 19.4231Z" fill="#8F95B2"/>
<path fill-rule="evenodd" clip-rule="evenodd" d="M40.625 30.625V31.4375C40.625 31.4375 40.625 31.7869 40.625 32.25V33.0544C40.625 33.8669 40.625 34.6875 40.625 34.6875C40.625 35.1344 40.9906 35.5 41.4375 35.5H43.875V31.4375H47.125V35.5H49.5625C50.0094 35.5 50.375 35.1344 50.375 34.6875V30.625L45.5 25.75L40.625 30.625ZM51.7644 28.4231L50.375 27.0419V24.125C50.375 23.6781 50.0094 23.3125 49.5625 23.3125C49.1156 23.3125 48.75 23.6781 48.75 24.125V25.4169L46.0769 22.7356C45.9306 22.5894 45.7275 22.5 45.5 22.5C45.2725 22.5 45.0694 22.5894 44.9231 22.7356L39.2356 28.4231C39.0894 28.5694 39 28.7725 39 29C39 29.4469 39.3656 29.8125 39.8125 29.8125C40.04 29.8125 40.2431 29.7231 40.3894 29.5769L45.5 24.4581L50.6106 29.5687C50.7569 29.7231 50.96 29.8125 51.1875 29.8125C51.6344 29.8125 52 29.4469 52 29C52 28.7725 51.9106 28.5694 51.7644 28.4231Z" fill="#8F95B2"/>
</svg>
