<svg width="17" height="17" viewBox="0 0 17 17" fill="none" xmlns="http://www.w3.org/2000/svg">
<path fill-rule="evenodd" clip-rule="evenodd" d="M8.5 0.5C4.08 0.5 0.5 4.08 0.5 8.5C0.5 12.92 4.08 16.5 8.5 16.5C12.92 16.5 16.5 12.92 16.5 8.5C16.5 4.08 12.92 0.5 8.5 0.5ZM11.5 8.5C11.22 8.5 10.97 8.39 10.79 8.21L9.5 6.91V12.5C9.5 13.05 9.05 13.5 8.5 13.5C7.95 13.5 7.5 13.05 7.5 12.5V6.91L6.21 8.21C6.03 8.39 5.78 8.5 5.5 8.5C4.95 8.5 4.5 8.05 4.5 7.5C4.5 7.22 4.61 6.97 4.79 6.79L7.79 3.79C7.97 3.61 8.22 3.5 8.5 3.5C8.78 3.5 9.03 3.61 9.21 3.79L12.21 6.79C12.39 6.97 12.5 7.22 12.5 7.5C12.5 8.05 12.05 8.5 11.5 8.5Z" fill="#2952CC"/>
</svg>
