<svg width="60" height="54" viewBox="0 0 60 54" fill="none" xmlns="http://www.w3.org/2000/svg">
<path fill-rule="evenodd" clip-rule="evenodd" d="M43.125 2.875H2.875C1.15 2.875 0 4.3125 0 5.75V40.25C0 41.975 1.15 43.125 2.875 43.125H43.125C44.85 43.125 46 41.975 46 40.25V5.75C46 4.3125 44.85 2.875 43.125 2.875ZM40.25 37.375H5.75V31.625H40.25V37.375ZM40.25 28.75H5.75V23H40.25V28.75ZM40.25 20.125H5.75V14.375H40.25V20.125Z" fill="#8F95B2"/>
<circle cx="42" cy="36" r="18" fill="white"/>
<path fill-rule="evenodd" clip-rule="evenodd" d="M31.25 39.25V40.875C31.25 40.875 31.25 41.5737 31.25 42.5V44.1087C31.25 45.7337 31.25 47.375 31.25 47.375C31.25 48.2687 31.9813 49 32.875 49H37.75V40.875H44.25V49H49.125C50.0187 49 50.75 48.2687 50.75 47.375V39.25L41 29.5L31.25 39.25ZM53.5287 34.8462L50.75 32.0837V26.25C50.75 25.3563 50.0187 24.625 49.125 24.625C48.2313 24.625 47.5 25.3563 47.5 26.25V28.8337L42.1538 23.4712C41.8612 23.1787 41.455 23 41 23C40.545 23 40.1388 23.1787 39.8462 23.4712L28.4712 34.8462C28.1787 35.1388 28 35.545 28 36C28 36.8938 28.7312 37.625 29.625 37.625C30.08 37.625 30.4863 37.4462 30.7787 37.1538L41 26.9163L51.2213 37.1375C51.5138 37.4462 51.92 37.625 52.375 37.625C53.2687 37.625 54 36.8938 54 36C54 35.545 53.8213 35.1388 53.5287 34.8462Z" fill="#8F95B2"/>
</svg>
