<svg width="65" height="58" viewBox="0 0 65 58" fill="none" xmlns="http://www.w3.org/2000/svg">
<path fill-rule="evenodd" clip-rule="evenodd" d="M45.625 3C37.69 3 31.25 9.44 31.25 17.375C31.25 20.3075 32.1413 23.01 33.6362 25.2812L14.8337 44.0838C14.3162 44.6012 14 45.32 14 46.125C14 47.7062 15.2937 49 16.875 49C17.68 49 18.3988 48.6838 18.9163 48.1662L22.625 44.4287L26.3337 48.1375C26.8512 48.6838 27.57 49 28.375 49C29.18 49 29.8988 48.6838 30.4163 48.1662L36.1663 42.4162C36.6838 41.8988 37 41.18 37 40.375C37 39.57 36.6838 38.8512 36.1663 38.3338L32.4287 34.625L37.69 29.3638C39.99 30.8587 42.6925 31.75 45.625 31.75C53.56 31.75 60 25.31 60 17.375C60 9.44 53.56 3 45.625 3ZM45.625 26C44.9638 26 44.3312 25.9137 43.7275 25.77C43.6987 25.77 43.67 25.7412 43.6413 25.7412C43.0375 25.5975 42.4625 25.3962 41.9163 25.1375C40.1338 24.275 38.725 22.8662 37.8625 21.0837C37.6038 20.5375 37.4025 19.9625 37.2588 19.3875C37.2588 19.3587 37.23 19.33 37.23 19.3013C37.0863 18.6687 37 18.0363 37 17.375C37 12.6025 40.8525 8.75 45.625 8.75C50.3975 8.75 54.25 12.6025 54.25 17.375C54.25 22.1475 50.3975 26 45.625 26Z" fill="#8F95B2"/>
<path fill-rule="evenodd" clip-rule="evenodd" d="M46.4022 49.5075L47.2925 54.1783L50.0608 50.3123L54.7317 49.422L50.8657 46.6537L49.9753 41.9829L47.207 45.8489L42.5348 46.7455L46.4022 49.5075ZM57.2623 42.5677L57.9756 46.2999L60.1892 43.2116L63.9269 42.4948L60.8322 40.2886L60.1218 36.5435L57.9053 39.6447L54.1694 40.3536L57.2623 42.5677Z" fill="#8F95B2"/>
<path fill-rule="evenodd" clip-rule="evenodd" d="M18.4536 22.6186L23.7969 21.8448L19.5516 18.5091L18.7778 13.1658L15.4421 17.4112L10.0988 18.185L14.3442 21.5206L15.125 26.8658L18.4536 22.6186ZM11.1307 9.94859L15.4003 9.3282L12.009 6.66103L11.3849 2.38501L8.7258 5.78383L4.44174 6.40036L7.84745 9.07139L8.46272 13.3451L11.1307 9.94859Z" fill="#8F95B2"/>
</svg>
